<?xml version="1.0" encoding="utf-8"?>
<!-- Generator: Adobe Illustrator 27.0.0, SVG Export Plug-In . SVG Version: 6.00 Build 0)  -->
<svg version="1.1" id="Layer_1" xmlns="http://www.w3.org/2000/svg" xmlns:xlink="http://www.w3.org/1999/xlink" x="0px" y="0px"
	 viewBox="0 0 512 512" style="enable-background:new 0 0 512 512;" xml:space="preserve">
<style type="text/css">
	.st0{fill:#FFFC00;}
	.st1{fill:#FFFFFF;}
	.st2{fill:#030303;}
</style>
<g id="XMLID_1_">
	<path id="XMLID_3_" class="st0" d="M430.36-0.02c45.03,0,81.64,36.47,81.64,81.64v348.86c0,45.03-36.47,81.64-81.64,81.64H81.64
		C36.61,512.12,0,475.65,0,430.48V81.62C0,36.59,36.47-0.02,81.64-0.02H430.36z"/>
	<path id="XMLID_4_" class="st1" d="M257.82,432.02c-0.98,0-1.96,0-2.81-0.14l0,0c-0.56,0-1.26,0.14-1.82,0.14
		c-22.16,0-36.47-10.1-50.22-19.78c-9.54-6.73-18.52-13.05-29.04-14.87c-5.19-0.84-10.24-1.26-15.29-1.26
		c-8.98,0-15.99,1.4-21.18,2.38c-3.09,0.56-5.89,1.12-7.86,1.12c-2.1,0-4.49-0.42-5.47-3.93c-0.84-2.95-1.54-5.89-2.1-8.7
		c-1.54-7.15-2.67-11.64-5.75-12.06c-35.21-5.47-45.31-12.91-47.55-18.1c-0.28-0.7-0.56-1.54-0.56-2.24
		c-0.14-1.96,1.26-3.79,3.37-4.07c54.15-8.98,78.41-64.25,79.54-66.63l0.14-0.14c3.37-6.73,3.93-12.48,1.96-17.39
		c-3.79-8.7-15.85-12.62-23.85-15.15c-1.96-0.56-3.79-1.26-5.33-1.82c-15.99-6.31-17.39-12.76-16.69-16.13
		c1.12-5.61,8.56-9.54,14.73-9.54c1.68,0,3.09,0.28,4.35,0.84c7.15,3.37,13.75,5.05,19.36,5.05c7.72,0,11.08-3.23,11.5-3.65
		c-0.14-3.65-0.42-7.43-0.7-11.5c-1.68-25.67-3.65-57.37,4.49-75.61c24.27-54.43,75.75-58.63,91.04-58.63c0.42,0,6.73,0,6.73,0h0.84
		c15.29,0,66.91,4.21,91.18,58.77c8.14,18.24,6.03,50.08,4.49,75.61v1.12c-0.28,3.51-0.42,7.01-0.56,10.38
		c0.42,0.42,3.51,3.37,10.52,3.65l0,0c5.33-0.14,11.5-1.96,18.24-5.05c1.96-0.98,4.21-1.12,5.61-1.12c2.24,0,4.63,0.42,6.45,1.26
		h0.14c5.47,1.96,8.98,5.75,9.12,9.68c0.14,3.79-2.81,9.4-16.83,15.01c-1.4,0.56-3.37,1.12-5.33,1.82c-8,2.52-20.2,6.45-23.85,15.15
		c-1.96,4.77-1.4,10.66,1.96,17.39l0.14,0.14c0.98,2.38,25.25,57.65,79.54,66.63c1.96,0.28,3.37,2.1,3.37,4.21
		c0,0.7-0.28,1.54-0.56,2.24c-2.24,5.19-12.34,12.62-47.55,18.1c-2.95,0.42-3.93,4.21-5.75,12.06c-0.56,2.81-1.26,5.61-2.1,8.7
		c-0.7,2.52-2.38,3.79-5.05,3.79h-0.42c-1.82,0-4.49-0.28-7.86-0.98c-6.03-1.12-12.62-2.24-21.18-2.24c-4.91,0-10.1,0.42-15.29,1.26
		c-10.52,1.82-19.5,8.14-29.04,14.87C294.44,421.92,280.13,432.02,257.82,432.02z"/>
	<path id="XMLID_7_" class="st2" d="M259.23,83.86c14.45,0,64.11,3.93,87.53,56.39c7.72,17.25,5.75,48.53,4.21,73.78
		c-0.28,3.93-0.56,7.86-0.7,11.5l-0.14,1.54l1.12,1.12c0.42,0.42,4.49,4.63,13.33,5.05h0.14h0.14c5.89-0.28,12.48-2.1,19.78-5.47
		c1.12-0.56,2.52-0.7,3.93-0.7c1.68,0,3.51,0.28,5.05,0.98l0.28,0.14c3.79,1.26,6.45,3.79,6.45,6.03c0,1.26-0.98,5.89-14.31,11.22
		c-1.26,0.56-3.09,1.12-5.05,1.68c-8.7,2.81-21.88,7.01-26.37,17.39c-2.52,5.89-1.82,12.91,1.96,20.62
		c1.54,3.65,26.51,59.76,82.48,69.01c0,0.28-0.14,0.56-0.28,0.84c-0.98,2.24-7.01,9.96-44.47,15.71c-5.89,0.84-7.29,7.43-8.98,15.15
		c-0.56,2.81-1.26,5.47-2.1,8.42c-0.28,0.84-0.28,0.98-1.26,0.98c-0.14,0-0.28,0-0.42,0c-1.68,0-4.21-0.28-7.15-0.98
		c-5.33-0.98-12.62-2.38-21.88-2.38c-5.19,0-10.52,0.42-15.99,1.4c-11.5,1.96-20.9,8.56-30.72,15.57
		c-13.33,9.4-27.07,19.08-47.97,19.08c-0.84,0-1.82,0-2.67-0.14h-0.28h-0.28c-0.56,0-0.98,0-1.54,0c-20.9,0-34.65-9.68-47.97-19.08
		c-9.96-7.01-19.22-13.61-30.72-15.57c-5.33-0.84-10.8-1.4-15.99-1.4c-9.26,0-16.55,1.4-21.88,2.52c-2.95,0.56-5.47,1.12-7.15,1.12
		c-1.4,0-1.4-0.14-1.68-1.12c-0.84-2.81-1.4-5.75-2.1-8.42c-1.68-7.72-3.09-14.31-8.98-15.15c-37.59-5.75-43.63-13.61-44.47-15.71
		c-0.14-0.28-0.28-0.7-0.28-0.98c55.97-9.26,80.94-65.23,82.48-69.01c3.79-7.86,4.49-14.73,1.96-20.62
		c-4.49-10.38-17.67-14.59-26.37-17.39c-1.96-0.56-3.79-1.12-5.05-1.68c-11.36-4.49-14.87-8.98-14.31-11.64
		c0.56-3.09,6.03-6.31,10.8-6.31c1.12,0,1.96,0.14,2.67,0.56c7.72,3.65,14.73,5.47,21.04,5.47c9.68,0,14.03-4.49,14.59-5.05
		l1.12-1.12l-0.14-1.54c-0.14-3.65-0.42-7.57-0.7-11.5c-1.54-25.11-3.51-56.39,4.21-73.78C187.41,88.07,236.92,84,251.51,84
		c0.42,0,6.73,0,6.73,0C258.67,83.86,258.95,83.86,259.23,83.86 M259.23,76.01L259.23,76.01c-0.28,0-0.7,0-0.98,0c0,0-6.17,0-6.59,0
		c-15.85,0-69.3,4.35-94.54,61.02c-8.56,19.08-6.45,51.48-4.77,77.43c0.14,3.09,0.42,6.31,0.56,9.26c-1.26,0.7-3.65,1.68-7.43,1.68
		c-5.05,0-10.94-1.54-17.67-4.77c-1.82-0.84-3.79-1.26-6.03-1.26c-7.86,0-17.11,5.19-18.66,12.76c-0.98,5.47,1.4,13.61,19.22,20.62
		c1.54,0.7,3.51,1.26,5.61,1.82c7.29,2.38,18.38,5.89,21.46,12.91c1.54,3.65,0.98,8.42-1.82,14.03c0,0.14-0.14,0.28-0.14,0.42
		c-0.98,2.24-24.41,55.69-76.45,64.25c-4.07,0.7-6.87,4.21-6.59,8.28c0,1.26,0.42,2.38,0.84,3.51c3.93,9.12,20.34,15.85,50.36,20.48
		c0.98,1.4,2.1,6.17,2.67,9.12c0.56,2.95,1.26,5.89,2.24,8.98c0.84,3.09,3.23,6.73,9.26,6.73c2.38,0,5.33-0.56,8.7-1.26
		c5.05-0.98,11.78-2.24,20.48-2.24c4.77,0,9.68,0.42,14.59,1.26c9.68,1.68,17.96,7.43,27.49,14.17
		c13.61,9.68,29.04,20.62,52.6,20.62c0.7,0,1.26,0,1.96,0s1.68,0,2.81,0c23.43,0,39-10.94,52.6-20.62
		c9.54-6.73,17.81-12.62,27.49-14.17c4.91-0.84,9.82-1.26,14.59-1.26c8.14,0,14.59,0.98,20.48,2.1c3.65,0.7,6.59,1.12,8.7,1.12h0.28
		h0.28c4.49,0,7.57-2.38,8.84-6.59c0.84-3.09,1.54-6.03,2.24-8.84c0.7-2.95,1.68-7.72,2.67-8.98c30.02-4.63,46.43-11.36,50.36-20.48
		c0.56-1.12,0.84-2.38,0.84-3.65c0.28-4.07-2.67-7.57-6.59-8.28c-52.04-8.56-75.47-62-76.45-64.25c0-0.14-0.14-0.28-0.14-0.42
		c-2.81-5.61-3.37-10.38-1.82-14.03c2.95-7.01,14.03-10.66,21.46-12.91c2.1-0.7,3.93-1.26,5.61-1.82
		c13.05-5.19,19.5-11.36,19.36-18.66c-0.14-5.75-4.63-10.8-11.64-13.33l0,0c-2.38-0.98-5.19-1.54-8-1.54
		c-1.96,0-4.77,0.28-7.29,1.54c-6.17,2.95-11.78,4.49-16.55,4.63c-3.23-0.14-5.19-0.98-6.45-1.54c0.14-2.67,0.28-5.33,0.56-8.14
		v-1.12c1.68-26.09,3.65-58.35-4.77-77.43C328.66,80.36,275.08,76.01,259.23,76.01z"/>
</g>
</svg>
